<svg xmlns="http://www.w3.org/2000/svg" xmlns:xlink="http://www.w3.org/1999/xlink" width="500" zoomAndPan="magnify" viewBox="0 0 375 374.999991" height="500" preserveAspectRatio="xMidYMid meet" version="1.0"><defs><clipPath id="07e7644d5e"><path d="M 1 0 L 374.589844 0 L 374.589844 375 L 1 375 Z M 1 0 " clip-rule="nonzero"/></clipPath></defs><g clip-path="url(#07e7644d5e)"><path fill="#000000" d="M 366.824219 144.019531 C 366.878906 143.765625 366.917969 143.503906 366.9375 143.242188 L 374.28125 91.191406 C 374.367188 90.777344 374.421875 90.347656 374.421875 89.910156 C 374.421875 86.566406 371.707031 83.851562 368.367188 83.851562 L 320.710938 83.851562 C 320.703125 83.851562 320.691406 83.851562 320.683594 83.851562 C 320.675781 83.851562 320.664062 83.851562 320.65625 83.851562 L 273.054688 83.851562 C 273.035156 83.851562 273.019531 83.851562 273 83.851562 C 272.980469 83.851562 272.960938 83.851562 272.945312 83.851562 L 225.398438 83.851562 C 225.371094 83.851562 225.34375 83.851562 225.316406 83.851562 C 225.289062 83.851562 225.257812 83.851562 225.230469 83.851562 L 177.742188 83.851562 C 177.707031 83.851562 177.667969 83.84375 177.632812 83.84375 C 177.59375 83.84375 177.558594 83.851562 177.519531 83.851562 L 130.078125 83.851562 C 130.03125 83.851562 129.984375 83.84375 129.949219 83.84375 C 129.902344 83.84375 129.855469 83.851562 129.816406 83.851562 L 88.671875 83.851562 L 63.472656 17.519531 C 62.753906 15.601562 61.152344 14.273438 59.320312 13.785156 L 8.699219 0.84375 C 5.46875 0.0195312 2.175781 1.976562 1.351562 5.210938 C 0.527344 8.449219 2.484375 11.746094 5.722656 12.558594 L 53.292969 24.726562 L 87.539062 114.859375 L 118.878906 197.34375 C 118.953125 197.605469 119.054688 197.859375 119.167969 198.113281 L 124.144531 211.214844 C 124.230469 211.484375 124.332031 211.75 124.445312 212.011719 L 138.292969 248.460938 L 124.164062 261.996094 C 111.898438 273.738281 103.960938 284.953125 100.398438 294.496094 C 98.097656 300.664062 97.535156 306.316406 98.722656 311.203125 C 100.023438 316.601562 103.296875 320.898438 108.527344 323.78125 C 110.269531 324.734375 112.214844 325.53125 114.386719 326.136719 C 109.847656 331.324219 107.089844 338.097656 107.089844 345.519531 C 107.089844 353.457031 110.242188 360.671875 115.367188 365.976562 L 115.714844 366.363281 C 121.046875 371.695312 128.414062 374.992188 136.542969 374.992188 C 144.675781 374.992188 152.050781 371.6875 157.375 366.363281 L 157.375 366.332031 C 162.699219 361 166 353.632812 166 345.519531 C 166 338.800781 163.734375 332.605469 159.929688 327.644531 L 285.808594 327.644531 C 282.246094 332.519531 280.128906 338.519531 280.128906 345.015625 C 280.128906 352.949219 283.28125 360.167969 288.410156 365.472656 L 288.757812 365.855469 C 294.089844 371.191406 301.453125 374.484375 309.585938 374.484375 C 317.71875 374.484375 325.089844 371.183594 330.414062 365.855469 L 330.414062 365.828125 C 335.738281 360.492188 339.042969 353.128906 339.042969 345.015625 C 339.042969 338.53125 336.929688 332.519531 333.363281 327.644531 L 344.589844 327.644531 C 347.933594 327.644531 350.644531 324.929688 350.644531 321.589844 C 350.644531 318.25 347.933594 315.535156 344.589844 315.535156 C 344.589844 315.535156 126.4375 315.535156 126.4375 315.535156 C 121.125 315.535156 117.101562 314.703125 114.359375 313.1875 C 112.242188 312.015625 110.941406 310.371094 110.457031 308.355469 C 109.847656 305.832031 110.261719 302.554688 111.699219 298.691406 C 114.648438 290.800781 121.589844 281.160156 132.539062 270.679688 L 148.035156 255.835938 L 177.828125 252.859375 C 178.097656 252.851562 178.371094 252.824219 178.640625 252.777344 L 225.519531 248.097656 C 225.792969 248.085938 226.054688 248.058594 226.316406 248.023438 L 273.207031 243.34375 C 273.476562 243.332031 273.738281 243.304688 273.992188 243.269531 L 320.890625 238.589844 C 321.152344 238.578125 321.414062 238.550781 321.667969 238.515625 L 348.980469 235.789062 C 351.785156 235.621094 354.183594 233.488281 354.585938 230.597656 L 359.347656 196.867188 C 359.402344 196.617188 359.441406 196.351562 359.460938 196.082031 Z M 148.839844 357.808594 C 145.703125 360.941406 141.355469 362.890625 136.5625 362.890625 C 131.773438 362.890625 127.429688 360.941406 124.285156 357.808594 L 124.003906 357.546875 C 121.03125 354.429688 119.207031 350.191406 119.207031 345.519531 C 119.207031 340.710938 121.140625 336.367188 124.285156 333.242188 C 127.421875 330.105469 131.773438 328.160156 136.5625 328.160156 C 141.355469 328.160156 145.695312 330.105469 148.839844 333.242188 L 149.121094 333.503906 C 152.097656 336.621094 153.921875 340.851562 153.921875 345.519531 C 153.921875 350.339844 151.972656 354.683594 148.839844 357.808594 Z M 321.863281 332.738281 L 322.144531 333 C 325.117188 336.113281 326.945312 340.34375 326.945312 345.015625 C 326.945312 349.824219 325.007812 354.167969 321.863281 357.292969 C 318.726562 360.429688 314.378906 362.375 309.585938 362.375 C 304.796875 362.375 300.453125 360.429688 297.308594 357.292969 L 297.027344 357.03125 C 294.054688 353.914062 292.230469 349.675781 292.230469 345.003906 C 292.230469 340.195312 294.164062 335.851562 297.308594 332.726562 C 300.445312 329.59375 304.796875 327.644531 309.585938 327.644531 C 314.378906 327.65625 318.71875 329.601562 321.863281 332.738281 Z M 149.363281 243.605469 L 136 208.433594 L 136 201.667969 L 171.585938 201.667969 L 171.585938 241.386719 Z M 266.945312 136.703125 L 231.359375 136.703125 L 231.359375 95.945312 L 266.945312 95.945312 C 266.945312 103.964844 266.945312 119.152344 266.945312 136.703125 Z M 279.054688 95.953125 L 314.628906 95.953125 L 314.628906 136.710938 L 279.042969 136.710938 L 279.042969 95.953125 Z M 231.371094 148.8125 L 266.953125 148.8125 C 266.953125 162.34375 266.953125 176.570312 266.953125 189.566406 L 231.371094 189.566406 Z M 219.269531 189.558594 L 183.695312 189.558594 L 183.695312 148.800781 L 219.269531 148.800781 Z M 219.269531 136.703125 L 183.695312 136.703125 L 183.695312 95.945312 L 219.269531 95.945312 Z M 171.585938 136.703125 L 136 136.703125 L 136 95.945312 L 171.585938 95.945312 Z M 171.585938 148.8125 L 171.585938 189.566406 L 136 189.566406 L 136 148.8125 Z M 123.902344 176.578125 L 113.347656 148.800781 L 123.902344 148.800781 Z M 183.6875 201.660156 L 219.261719 201.660156 L 219.261719 236.625 L 183.6875 240.171875 Z M 231.371094 201.660156 L 266.953125 201.660156 C 266.953125 214.789062 266.953125 225.691406 266.953125 231.859375 L 231.371094 235.417969 Z M 279.054688 201.660156 L 314.628906 201.660156 L 314.628906 227.105469 L 279.042969 230.660156 L 279.042969 201.660156 Z M 279.054688 189.558594 L 279.054688 148.800781 L 314.628906 148.800781 L 314.628906 189.558594 Z M 326.738281 148.8125 L 353.957031 148.8125 L 348.203125 189.566406 L 326.738281 189.566406 Z M 355.660156 136.703125 L 326.726562 136.703125 L 326.726562 95.945312 L 361.414062 95.945312 Z M 123.902344 95.953125 L 123.902344 136.710938 L 108.753906 136.710938 L 98.835938 110.617188 L 93.265625 95.964844 L 123.902344 95.964844 Z M 326.738281 225.898438 L 326.738281 201.660156 L 346.5 201.660156 L 343.308594 224.242188 Z M 326.738281 225.898438 " fill-opacity="1" fill-rule="nonzero"/></g></svg>